<?xml version="1.0" encoding="UTF-8" standalone="no"?>
<!-- Created with Inkscape (http://www.inkscape.org/) -->

<svg
   xmlns:dc="http://purl.org/dc/elements/1.1/"
   xmlns:cc="http://creativecommons.org/ns#"
   xmlns:rdf="http://www.w3.org/1999/02/22-rdf-syntax-ns#"
   xmlns:svg="http://www.w3.org/2000/svg"
   xmlns="http://www.w3.org/2000/svg"
   xmlns:sodipodi="http://sodipodi.sourceforge.net/DTD/sodipodi-0.dtd"
   xmlns:inkscape="http://www.inkscape.org/namespaces/inkscape"
   width="210mm"
   height="297mm"
   viewBox="0 0 744.09448819 1052.3622047"
   id="svg2"
   version="1.1"
   inkscape:version="0.91 r13725"
   sodipodi:docname="drawing.svg">
  <defs
     id="defs4" />
  <sodipodi:namedview
     id="base"
     pagecolor="#ffffff"
     bordercolor="#666666"
     borderopacity="1.0"
     inkscape:pageopacity="0.0"
     inkscape:pageshadow="2"
     inkscape:zoom="1.979899"
     inkscape:cx="285.6015"
     inkscape:cy="704.38364"
     inkscape:document-units="px"
     inkscape:current-layer="layer1"
     showgrid="false"
     inkscape:window-width="1366"
     inkscape:window-height="713"
     inkscape:window-x="0"
     inkscape:window-y="27"
     inkscape:window-maximized="1" />
  <metadata
     id="metadata7">
    <rdf:RDF>
      <cc:Work
         rdf:about="">
        <dc:format>image/svg+xml</dc:format>
        <dc:type
           rdf:resource="http://purl.org/dc/dcmitype/StillImage" />
        <dc:title></dc:title>
      </cc:Work>
    </rdf:RDF>
  </metadata>
  <g
     inkscape:label="Layer 1"
     inkscape:groupmode="layer"
     id="layer1">
    <rect
       style="fill:#ffffff"
       id="rect3379"
       width="58.588844"
       height="58.588844"
       x="213.64726"
       y="226.5625"
       inkscape:export-xdpi="90"
       inkscape:export-ydpi="90" />
    <g
       id="g3381"
       transform="translate(-0.99190265,2.3159148)"
       inkscape:export-xdpi="90"
       inkscape:export-ydpi="90">
      <path
         id="path3375"
         d="m 241.87695,253.33203 0,-0.74805 c -0.013,-2.61718 -0.54036,-4.93489 -1.58203,-6.95312 -1.02864,-2.01823 -2.49349,-3.57422 -4.39453,-4.66797 -1.90104,-1.09375 -4.08854,-1.64062 -6.5625,-1.64062 l -8.02734,0 0,14.00976 3.75,0 0,-10.92383 4.375,0 c 2.78646,0.026 4.93489,0.9375 6.44531,2.73438 1.52344,1.78385 2.28516,4.29036 2.28516,7.51953 l 0,0.66992 3.71093,0 z"
         clip-path="none"
         style="font-style:normal;font-weight:normal;font-size:40px;line-height:125%;font-family:sans-serif;letter-spacing:0px;word-spacing:0px;fill:#000000;fill-opacity:1;stroke:none;stroke-width:1px;stroke-linecap:butt;stroke-linejoin:miter;stroke-opacity:1"
         inkscape:connector-curvature="0" />
      <path
         inkscape:connector-curvature="0"
         id="path3373"
         d="m 239.87695,253.33203 -3.71093,0 0,0.99024 c 0,3.32031 -0.8073,5.8789 -2.42188,7.67578 -1.60156,1.79687 -3.84766,2.69531 -6.73828,2.69531 l -3.94531,0 0,-11.36133 -3.75,0 0,14.42774 7.87109,0 c 2.55208,-0.026 4.78516,-0.57943 6.69922,-1.66016 1.92708,-1.08073 3.40495,-2.63021 4.43359,-4.64844 1.04167,-2.01823 1.5625,-4.36849 1.5625,-7.05078 l 0,-1.06836 z"
         clip-path="none"
         style="font-style:normal;font-weight:normal;font-size:40px;line-height:125%;font-family:sans-serif;letter-spacing:0px;word-spacing:0px;fill:#000000;fill-opacity:1;stroke:none;stroke-width:1px;stroke-linecap:butt;stroke-linejoin:miter;stroke-opacity:1" />
      <path
         inkscape:connector-curvature="0"
         id="path3371"
         d="m 248.41211,253.33203 -3.76953,0 0,1.57617 c 0.026,2.64323 0.52734,4.96745 1.5039,6.97266 0.98959,2.00521 2.38282,3.55469 4.17969,4.64844 1.79688,1.08073 3.85417,1.62109 6.17188,1.62109 2.29166,0 4.29687,-0.33854 6.01562,-1.01562 1.73177,-0.69011 3.07943,-1.72526 4.04297,-3.10547 l 0,-10.42969 -10.3125,0 0,3.04687 6.58203,0 0,6.38672 c -0.6901,0.74219 -1.5625,1.26953 -2.61719,1.58203 -1.05468,0.3125 -2.28515,0.46875 -3.6914,0.46875 -2.48698,0 -4.45964,-0.9375 -5.91797,-2.8125 -1.45833,-1.88802 -2.1875,-4.42708 -2.1875,-7.61718 l 0,-1.32227 z"
         clip-path="none"
         style="font-style:normal;font-weight:normal;font-size:40px;line-height:125%;font-family:sans-serif;letter-spacing:0px;word-spacing:0px;fill:#000000;fill-opacity:1;stroke:none;stroke-width:1px;stroke-linecap:butt;stroke-linejoin:miter;stroke-opacity:1" />
      <path
         id="flowRoot3336"
         d="m 258.06836,238.93164 c -3.61979,0 -6.43229,1.17839 -8.4375,3.53516 -1.99219,2.35677 -2.98828,5.67708 -2.98828,9.96093 l 0,0.9043 3.76953,0 0,-1.00195 c 0.013,-3.34636 0.66406,-5.89844 1.95312,-7.65625 1.30209,-1.77084 3.20964,-2.65625 5.72266,-2.65625 3.77604,0 6.01563,1.88151 6.71875,5.64453 l 3.75,0 c -0.40365,-2.78646 -1.51042,-4.9349 -3.32031,-6.44531 -1.8099,-1.52344 -4.19922,-2.28516 -7.16797,-2.28516 z"
         clip-path="none"
         style="font-style:normal;font-weight:normal;font-size:40px;line-height:125%;font-family:sans-serif;letter-spacing:0px;word-spacing:0px;fill:#000000;fill-opacity:1;stroke:none;stroke-width:1px;stroke-linecap:butt;stroke-linejoin:miter;stroke-opacity:1"
         inkscape:connector-curvature="0" />
    </g>
  </g>
</svg>
